<?xml version="1.0" encoding="UTF-8"?>
<svg id="_レイヤー_2" data-name="レイヤー 2" xmlns="http://www.w3.org/2000/svg" viewBox="0 0 919.28 158.53">
  <defs>
    <style>
      .cls-1 {
        fill: #a08257;
      }
    </style>
  </defs>
  <g id="_レイヤー_1-2" data-name="レイヤー 1">
    <g>
      <g>
        <g>
          <path class="cls-1" d="M44.53,110.75h-17.02v47.78h-10.5v-47.78H0v-8.62h44.53v8.62Z"/>
          <path class="cls-1" d="M75.85,158.53h-10.54v-56.39h10.54v56.39Z"/>
          <path class="cls-1" d="M163.75,102.14v56.39h-9.25v-36.43c0-1.46.08-3.03.23-4.72l-17.05,32.02c-.81,1.53-2.04,2.3-3.71,2.3h-1.48c-1.67,0-2.9-.77-3.71-2.3l-17.25-32.14c.08.86.14,1.7.19,2.54s.08,1.6.08,2.3v36.43h-9.25v-56.39h7.92c.47,0,.87.01,1.21.04.34.03.64.09.92.2.27.1.52.27.74.51.22.23.43.55.64.94l16.9,31.32c.44.83.85,1.69,1.23,2.57.38.88.75,1.79,1.11,2.73.36-.96.74-1.89,1.13-2.79.39-.9.81-1.76,1.25-2.59l16.66-31.24c.21-.39.43-.7.66-.94s.49-.4.76-.51c.27-.1.58-.17.92-.2.34-.03.74-.04,1.21-.04h7.92Z"/>
          <path class="cls-1" d="M201.01,110.48v15.64h19.75v8.07h-19.75v15.95h25.05v8.38h-35.59v-56.39h35.59v8.35h-25.05Z"/>
          <path class="cls-1" d="M282.27,149.87v8.66h-33.06v-56.39h10.5v47.74h22.56Z"/>
          <path class="cls-1" d="M313.6,158.53h-10.54v-56.39h10.54v56.39Z"/>
          <path class="cls-1" d="M387.88,102.14v56.39h-5.39c-.83,0-1.53-.14-2.09-.41-.56-.27-1.1-.73-1.62-1.38l-29.46-37.6c.16,1.72.23,3.3.23,4.76v34.63h-9.25v-56.39h5.5c.44,0,.83.02,1.15.06.33.04.61.12.86.23.25.12.49.29.72.51.23.22.49.51.78.88l29.58,37.75c-.08-.91-.14-1.81-.2-2.69-.05-.88-.08-1.7-.08-2.46v-34.28h9.25Z"/>
          <path class="cls-1" d="M425.16,110.48v15.64h19.75v8.07h-19.75v15.95h25.05v8.38h-35.59v-56.39h35.59v8.35h-25.05Z"/>
        </g>
        <g>
          <path class="cls-1" d="M554.64,157.91h-8.12c-.91,0-1.65-.23-2.22-.68-.57-.45-1-1.02-1.29-1.7l-4.21-11.5h-23.38l-4.21,11.5c-.21.6-.61,1.14-1.21,1.64-.6.49-1.34.74-2.22.74h-8.2l22.21-56.39h10.69l22.17,56.39ZM536.1,136.61l-6.87-18.76c-.34-.83-.69-1.82-1.05-2.96-.37-1.14-.73-2.38-1.09-3.71-.34,1.33-.69,2.57-1.05,3.72s-.72,2.16-1.05,3.02l-6.83,18.68h17.95Z"/>
          <path class="cls-1" d="M618.8,157.91h-9.48c-1.8,0-3.1-.7-3.9-2.11l-11.86-18.06c-.44-.68-.93-1.16-1.46-1.44-.53-.29-1.32-.43-2.36-.43h-4.49v22.04h-10.5v-56.39h17.21c3.82,0,7.11.4,9.85,1.19s5,1.9,6.75,3.33c1.76,1.43,3.05,3.14,3.88,5.13.83,1.99,1.25,4.18,1.25,6.57,0,1.9-.28,3.69-.84,5.38-.56,1.69-1.37,3.22-2.42,4.6s-2.36,2.59-3.9,3.63-3.31,1.86-5.29,2.46c.68.39,1.3.85,1.87,1.38.57.53,1.09,1.16,1.56,1.89l14.13,20.83ZM591.8,128.34c1.98,0,3.7-.25,5.17-.74s2.68-1.18,3.63-2.05,1.66-1.9,2.13-3.1c.47-1.2.7-2.51.7-3.94,0-2.86-.94-5.06-2.83-6.59-1.89-1.53-4.77-2.3-8.64-2.3h-6.71v18.72h6.56Z"/>
          <path class="cls-1" d="M677,144.61c.57,0,1.08.22,1.52.66l4.14,4.48c-2.29,2.83-5.11,5.01-8.45,6.51s-7.36,2.26-12.04,2.26c-4.19,0-7.95-.71-11.3-2.15-3.34-1.43-6.2-3.42-8.57-5.97-2.37-2.55-4.18-5.59-5.44-9.13-1.26-3.54-1.89-7.4-1.89-11.58s.68-8.12,2.03-11.64c1.35-3.52,3.26-6.56,5.72-9.11,2.46-2.55,5.39-4.53,8.8-5.95,3.41-1.42,7.18-2.12,11.32-2.12s7.76.68,10.95,2.03c3.19,1.35,5.9,3.12,8.14,5.3l-3.51,4.88c-.21.31-.48.58-.8.82-.33.23-.77.35-1.35.35-.39,0-.79-.11-1.21-.33-.42-.22-.87-.49-1.37-.82s-1.07-.68-1.72-1.07c-.65-.39-1.41-.75-2.26-1.07-.86-.33-1.85-.6-2.99-.82-1.13-.22-2.44-.33-3.92-.33-2.52,0-4.83.45-6.93,1.35-2.1.9-3.9,2.2-5.41,3.9-1.51,1.7-2.68,3.78-3.51,6.24s-1.25,5.26-1.25,8.4.45,5.99,1.35,8.46c.9,2.47,2.11,4.55,3.65,6.24,1.54,1.69,3.34,2.98,5.42,3.88,2.08.9,4.32,1.35,6.71,1.35,1.43,0,2.73-.08,3.88-.23,1.16-.16,2.22-.4,3.2-.74.98-.34,1.9-.77,2.77-1.31.87-.53,1.74-1.19,2.6-1.97.26-.23.53-.42.82-.57.29-.14.59-.21.9-.21Z"/>
          <path class="cls-1" d="M751.17,101.51v56.39h-10.54v-24.65h-26.5v24.65h-10.54v-56.39h10.54v24.26h26.5v-24.26h10.54Z"/>
          <path class="cls-1" d="M788.42,157.91h-10.54v-56.39h10.54v56.39Z"/>
          <path class="cls-1" d="M863.58,101.51l-22.79,56.39h-9.48l-22.79-56.39h8.43c.91,0,1.65.22,2.22.66.57.44,1,1.01,1.29,1.72l13.31,34.4c.44,1.12.86,2.35,1.27,3.69.4,1.34.79,2.74,1.15,4.19.31-1.46.65-2.85,1.01-4.19.36-1.34.77-2.57,1.21-3.69l13.23-34.4c.21-.6.62-1.14,1.23-1.64.61-.49,1.36-.74,2.24-.74h8.47Z"/>
          <path class="cls-1" d="M894.22,109.86v15.64h19.75v8.07h-19.75v15.95h25.05v8.38h-35.59v-56.39h35.59v8.35h-25.05Z"/>
        </g>
      </g>
      <g>
        <path class="cls-1" d="M224.75,28.82c0,4.13-.69,7.93-2.07,11.39-1.38,3.46-3.32,6.43-5.82,8.93s-5.5,4.43-9.01,5.81c-3.51,1.38-7.42,2.07-11.71,2.07h-21.5V.62h21.5c4.29,0,8.2.7,11.71,2.09,3.51,1.39,6.52,3.33,9.01,5.81,2.5,2.48,4.44,5.45,5.82,8.91,1.38,3.46,2.07,7.25,2.07,11.39ZM213.98,28.82c0-3.09-.41-5.87-1.23-8.33s-2-4.54-3.55-6.24c-1.55-1.7-3.42-3.01-5.62-3.92s-4.68-1.37-7.43-1.37h-10.97v39.7h10.97c2.76,0,5.24-.46,7.43-1.37s4.07-2.22,5.62-3.92c1.55-1.7,2.73-3.78,3.55-6.24s1.23-5.23,1.23-8.33Z"/>
        <path class="cls-1" d="M258.91,57.02h-10.54V.62h10.54v56.39Z"/>
        <path class="cls-1" d="M329.68,57.02h-9.48c-1.8,0-3.1-.7-3.9-2.11l-11.86-18.06c-.44-.68-.93-1.16-1.46-1.44-.53-.29-1.32-.43-2.36-.43h-4.49v22.04h-10.5V.62h17.21c3.82,0,7.11.4,9.85,1.19,2.74.79,4.99,1.9,6.75,3.33,1.76,1.43,3.05,3.14,3.88,5.13.83,1.99,1.25,4.18,1.25,6.57,0,1.9-.28,3.69-.84,5.38-.56,1.69-1.37,3.22-2.42,4.6-1.05,1.38-2.35,2.59-3.9,3.63-1.55,1.04-3.31,1.86-5.29,2.46.68.39,1.3.85,1.87,1.38.57.53,1.09,1.16,1.56,1.89l14.13,20.83ZM302.68,27.46c1.98,0,3.7-.25,5.17-.74s2.68-1.18,3.63-2.05c.95-.87,1.66-1.9,2.13-3.1.47-1.2.7-2.51.7-3.94,0-2.86-.94-5.06-2.83-6.59-1.89-1.53-4.77-2.3-8.64-2.3h-6.71v18.72h6.56Z"/>
        <path class="cls-1" d="M360.45,8.97v15.64h19.75v8.07h-19.75v15.95h25.05v8.38h-35.59V.62h35.59v8.35h-25.05Z"/>
        <path class="cls-1" d="M446.03,43.72c.57,0,1.08.22,1.52.66l4.14,4.48c-2.29,2.83-5.11,5.01-8.45,6.51s-7.36,2.26-12.04,2.26c-4.19,0-7.95-.71-11.3-2.15-3.34-1.43-6.2-3.42-8.57-5.97-2.37-2.55-4.18-5.59-5.44-9.13-1.26-3.54-1.89-7.4-1.89-11.58s.68-8.12,2.03-11.64c1.35-3.52,3.26-6.56,5.72-9.11,2.46-2.55,5.39-4.53,8.8-5.95,3.41-1.42,7.18-2.12,11.32-2.12s7.76.68,10.95,2.03c3.19,1.35,5.9,3.12,8.14,5.3l-3.51,4.88c-.21.31-.48.58-.8.82-.33.23-.77.35-1.35.35-.39,0-.79-.11-1.21-.33-.42-.22-.87-.49-1.37-.82s-1.07-.68-1.72-1.07c-.65-.39-1.41-.75-2.26-1.07-.86-.33-1.85-.6-2.99-.82-1.13-.22-2.44-.33-3.92-.33-2.52,0-4.83.45-6.93,1.35-2.1.9-3.9,2.2-5.41,3.9-1.51,1.7-2.68,3.78-3.51,6.24s-1.25,5.26-1.25,8.4.45,5.99,1.35,8.46c.9,2.47,2.11,4.55,3.65,6.24,1.54,1.69,3.34,2.98,5.42,3.88,2.08.9,4.32,1.35,6.71,1.35,1.43,0,2.73-.08,3.88-.23,1.16-.16,2.22-.4,3.2-.74.98-.34,1.9-.77,2.77-1.31.87-.53,1.74-1.19,2.6-1.97.26-.23.53-.42.82-.57.29-.14.59-.21.9-.21Z"/>
        <path class="cls-1" d="M514.21,9.24h-17.02v47.78h-10.5V9.24h-17.02V.62h44.53v8.62Z"/>
        <path class="cls-1" d="M587.31,28.82c0,4.13-.68,7.96-2.05,11.49-1.37,3.52-3.3,6.57-5.8,9.15-2.5,2.57-5.5,4.58-9.01,6.03-3.51,1.44-7.42,2.16-11.71,2.16s-8.16-.72-11.67-2.16c-3.51-1.44-6.52-3.45-9.03-6.03-2.51-2.57-4.46-5.62-5.83-9.15-1.38-3.52-2.07-7.35-2.07-11.49s.69-7.96,2.07-11.49c1.38-3.52,3.32-6.57,5.83-9.15,2.51-2.57,5.52-4.58,9.03-6.03s7.4-2.16,11.67-2.16c2.86,0,5.55.33,8.08.99,2.52.66,4.84,1.6,6.95,2.81,2.11,1.21,4,2.68,5.68,4.41,1.68,1.73,3.1,3.66,4.27,5.79s2.06,4.45,2.67,6.94c.61,2.5.92,5.12.92,7.88ZM576.58,28.82c0-3.09-.42-5.87-1.25-8.33-.83-2.46-2.02-4.54-3.55-6.26-1.54-1.72-3.4-3.03-5.6-3.94-2.2-.91-4.68-1.37-7.43-1.37s-5.24.46-7.43,1.37-4.07,2.22-5.62,3.94-2.74,3.8-3.57,6.26-1.25,5.23-1.25,8.33.42,5.87,1.25,8.33,2.02,4.54,3.57,6.24c1.55,1.7,3.42,3.01,5.62,3.92s4.68,1.37,7.43,1.37,5.24-.46,7.43-1.37c2.2-.91,4.06-2.22,5.6-3.92,1.53-1.7,2.72-3.78,3.55-6.24.83-2.46,1.25-5.23,1.25-8.33Z"/>
        <path class="cls-1" d="M654.91,57.02h-9.48c-1.8,0-3.1-.7-3.9-2.11l-11.86-18.06c-.44-.68-.93-1.16-1.46-1.44-.53-.29-1.32-.43-2.36-.43h-4.49v22.04h-10.5V.62h17.21c3.82,0,7.11.4,9.85,1.19s5,1.9,6.75,3.33c1.76,1.43,3.05,3.14,3.88,5.13.83,1.99,1.25,4.18,1.25,6.57,0,1.9-.28,3.69-.84,5.38-.56,1.69-1.37,3.22-2.42,4.6s-2.36,2.59-3.9,3.63-3.31,1.86-5.29,2.46c.68.39,1.3.85,1.87,1.38.57.53,1.09,1.16,1.56,1.89l14.13,20.83ZM627.9,27.46c1.98,0,3.7-.25,5.17-.74s2.68-1.18,3.63-2.05,1.66-1.9,2.13-3.1c.47-1.2.7-2.51.7-3.94,0-2.86-.94-5.06-2.83-6.59-1.89-1.53-4.77-2.3-8.64-2.3h-6.71v18.72h6.56Z"/>
        <path class="cls-1" d="M705.57,10.88c-.31.55-.64.94-.99,1.19-.35.25-.79.37-1.31.37-.55,0-1.14-.2-1.78-.6-.64-.4-1.4-.85-2.28-1.35-.89-.49-1.92-.94-3.1-1.34-1.18-.4-2.58-.6-4.2-.6-1.46,0-2.73.17-3.82.53-1.09.35-2.01.84-2.75,1.46-.74.62-1.29,1.37-1.66,2.24s-.55,1.83-.55,2.87c0,1.33.37,2.43,1.11,3.31.74.88,1.72,1.64,2.95,2.26s2.62,1.18,4.18,1.68c1.56.49,3.16,1.02,4.8,1.58,1.64.56,3.24,1.21,4.8,1.95,1.56.74,2.95,1.68,4.18,2.81,1.22,1.13,2.2,2.51,2.95,4.15.74,1.64,1.11,3.63,1.11,5.97,0,2.55-.44,4.93-1.31,7.16-.87,2.22-2.15,4.16-3.82,5.81-1.68,1.65-3.73,2.95-6.15,3.9-2.42.95-5.19,1.42-8.31,1.42-1.8,0-3.56-.18-5.31-.53-1.74-.35-3.41-.85-5.02-1.5-1.6-.65-3.1-1.43-4.51-2.34-1.41-.91-2.65-1.92-3.75-3.04l3.08-5.03c.26-.36.6-.67,1.01-.92s.86-.37,1.33-.37c.65,0,1.35.27,2.11.8.75.53,1.65,1.12,2.69,1.77,1.04.65,2.26,1.24,3.65,1.77,1.39.53,3.06.8,5.02.8,2.99,0,5.31-.71,6.95-2.12,1.64-1.42,2.46-3.45,2.46-6.1,0-1.48-.37-2.69-1.11-3.63-.74-.94-1.72-1.72-2.95-2.36-1.22-.64-2.62-1.18-4.18-1.62-1.56-.44-3.15-.92-4.76-1.44-1.61-.52-3.2-1.14-4.76-1.87-1.56-.73-2.95-1.68-4.18-2.85s-2.2-2.63-2.95-4.39-1.11-3.92-1.11-6.49c0-2.05.41-4.06,1.23-6.01s2.01-3.68,3.57-5.19c1.56-1.51,3.49-2.72,5.78-3.63,2.29-.91,4.92-1.36,7.88-1.36,3.33,0,6.4.52,9.21,1.56,2.81,1.04,5.2,2.5,7.18,4.37l-2.62,4.95Z"/>
        <path class="cls-1" d="M734.87,1h9.77l-6.8,21.12h-8.57l5.6-21.12Z"/>
      </g>
    </g>
  </g>
</svg>