<?xml version="1.0" encoding="UTF-8"?>
<svg id="_レイヤー_2" data-name="レイヤー 2" xmlns="http://www.w3.org/2000/svg" viewBox="0 0 44 48">
  <defs>
    <style>
      .cls-1 {
        fill: #a08257;
      }
    </style>
  </defs>
  <g id="_レイヤー_1-2" data-name="レイヤー 1">
    <g>
      <path class="cls-1" d="M0,0h7.26c1.76,0,3.43.2,5.01.59,1.58.39,2.96,1.03,4.14,1.91,1.18.88,2.11,2.02,2.81,3.43.69,1.41,1.04,3.11,1.04,5.12,0,1.78-.34,3.34-1.01,4.7-.67,1.35-1.58,2.49-2.71,3.41-1.14.92-2.45,1.62-3.94,2.09-1.49.48-3.05.71-4.68.71H0V0ZM4.84,17.49h2.51c1.12,0,2.16-.11,3.12-.34.96-.23,1.79-.6,2.5-1.13.7-.53,1.26-1.22,1.66-2.08.4-.86.6-1.91.6-3.15,0-1.07-.2-2.01-.6-2.81-.4-.8-.95-1.45-1.63-1.97-.68-.52-1.48-.9-2.4-1.16-.92-.26-1.89-.39-2.9-.39h-2.85v13.02Z"/>
      <path class="cls-1" d="M30.06,4.28h-6.26V0h17.37v4.28h-6.26v17.68h-4.84V4.28Z"/>
      <path class="cls-1" d="M30.45,26.04h4l9.55,21.96h-5.46l-1.89-4.65h-8.53l-1.83,4.65h-5.33l9.49-21.96ZM32.31,32.43l-2.67,6.82h5.36l-2.7-6.82Z"/>
    </g>
  </g>
</svg>