<?xml version="1.0" encoding="UTF-8"?>
<svg id="_レイヤー_2" data-name="レイヤー 2" xmlns="http://www.w3.org/2000/svg" viewBox="0 0 609.76 123.82">
  <g id="_レイヤー_1-2" data-name="レイヤー 1">
    <path d="M28.55,3.21c-3.15-1.75-6.92-2.62-11.29-2.62H1.76v43.65h15.35c4.43,0,8.24-.87,11.41-2.62,3.17-1.75,5.61-4.25,7.31-7.51,1.7-3.26,2.55-7.17,2.55-11.72s-.85-8.42-2.55-11.67-4.13-5.75-7.28-7.5ZM28.04,30.41c-.96,2.09-2.39,3.63-4.29,4.63s-4.26,1.49-7.08,1.49h-5.98V8.29h6.04c2.79,0,5.13.5,7.02,1.49s3.31,2.53,4.28,4.61,1.45,4.74,1.45,7.98-.48,5.94-1.44,8.03Z"/>
    <rect x="48.23" y=".59" width="8.94" height="43.65"/>
    <path d="M77.54,28.65h7.01l8.34,15.59h9.9l-9.3-17.05c.16-.07.34-.12.5-.19,2.35-1.1,4.15-2.7,5.39-4.78s1.86-4.56,1.86-7.43-.61-5.37-1.83-7.5c-1.22-2.13-2.99-3.78-5.32-4.95s-5.15-1.76-8.47-1.76h-17.02v43.65h8.94v-15.59ZM83.96,7.97c1.84,0,3.34.26,4.53.79s2.07,1.29,2.65,2.3c.59,1.01.88,2.25.88,3.74s-.29,2.66-.88,3.65c-.59.99-1.46,1.73-2.64,2.23s-2.68.75-4.51.75h-6.45V7.97h6.42Z"/>
    <polygon points="140.58 36.83 120.25 36.83 120.25 25.84 139 25.84 139 18.54 120.25 18.54 120.25 8 140.52 8 140.52 .59 111.31 .59 111.31 44.24 140.58 44.24 140.58 36.83"/>
    <path d="M176.33,43.56c2.21-.84,4.11-1.99,5.71-3.46,1.6-1.46,2.89-3.12,3.85-4.98.97-1.86,1.57-3.8,1.8-5.83h-9.05c-.22,1.19-.6,2.26-1.16,3.19s-1.26,1.73-2.11,2.39c-.85.66-1.81,1.15-2.87,1.49-1.07.34-2.22.51-3.47.51-2.25,0-4.22-.55-5.92-1.64-1.7-1.09-3.03-2.71-3.98-4.86-.96-2.15-1.44-4.79-1.44-7.94s.47-5.71,1.42-7.87c.95-2.16,2.27-3.8,3.98-4.94,1.71-1.13,3.7-1.7,5.96-1.7,1.25,0,2.41.17,3.49.51,1.07.34,2.03.84,2.86,1.49.83.66,1.52,1.45,2.08,2.37.56.93.93,2,1.13,3.21h9.05c-.33-2.46-1.03-4.65-2.08-6.58-1.05-1.92-2.41-3.55-4.07-4.88-1.66-1.33-3.56-2.34-5.7-3.03-2.14-.69-4.45-1.04-6.93-1.04-3.83,0-7.28.88-10.34,2.64-3.07,1.76-5.49,4.31-7.27,7.66-1.78,3.35-2.67,7.4-2.67,12.14s.88,8.76,2.65,12.1c1.77,3.34,4.18,5.89,7.24,7.65,3.06,1.76,6.52,2.64,10.39,2.64,2.75,0,5.23-.42,7.44-1.26Z"/>
    <polygon points="230.01 .59 194.36 .59 194.36 8 207.72 8 207.72 44.24 216.68 44.24 216.68 8 230.01 8 230.01 .59"/>
    <path d="M274.06,34.54c1.79-3.34,2.68-7.37,2.68-12.1s-.89-8.79-2.68-12.14c-1.79-3.35-4.21-5.9-7.28-7.66s-6.53-2.64-10.4-2.64-7.31.88-10.39,2.64-5.51,4.31-7.29,7.66c-1.79,3.35-2.68,7.4-2.68,12.14s.89,8.76,2.68,12.1,4.22,5.89,7.29,7.65,6.54,2.64,10.39,2.64,7.33-.88,10.4-2.64,5.49-4.31,7.28-7.65ZM266.25,30.34c-.94,2.16-2.25,3.79-3.94,4.89-1.69,1.1-3.67,1.66-5.93,1.66s-4.22-.56-5.92-1.67-3.02-2.74-3.96-4.89c-.94-2.15-1.41-4.78-1.41-7.88s.47-5.77,1.41-7.92c.94-2.16,2.26-3.79,3.96-4.91s3.67-1.67,5.92-1.67,4.24.55,5.93,1.66c1.69,1.1,3,2.74,3.94,4.89.94,2.16,1.41,4.81,1.41,7.95s-.47,5.74-1.41,7.9Z"/>
    <path d="M312,27c2.35-1.1,4.15-2.7,5.39-4.78s1.86-4.56,1.86-7.43-.61-5.37-1.83-7.5c-1.22-2.13-2.99-3.78-5.32-4.95s-5.15-1.76-8.47-1.76h-17.02v43.65h8.94v-15.59h7.01l8.34,15.59h9.9l-9.3-17.05c.16-.07.34-.12.5-.19ZM295.54,7.97h6.42c1.84,0,3.34.26,4.53.79s2.07,1.29,2.65,2.3c.59,1.01.88,2.25.88,3.74s-.29,2.66-.88,3.65c-.59.99-1.46,1.73-2.64,2.23s-2.68.75-4.51.75h-6.45V7.97Z"/>
    <path d="M348.57,36.64c-1.18.46-2.57.69-4.17.69s-3.04-.24-4.31-.73c-1.27-.49-2.29-1.23-3.05-2.21-.76-.99-1.2-2.21-1.32-3.68h-8.7c.08,3.09.84,5.68,2.29,7.79s3.46,3.7,6.05,4.78c2.59,1.07,5.63,1.61,9.13,1.61s6.56-.54,9.08-1.61c2.52-1.07,4.44-2.59,5.77-4.56s1.99-4.26,1.99-6.9c0-1.83-.33-3.46-.98-4.86s-1.58-2.62-2.77-3.65-2.58-1.89-4.16-2.59-3.29-1.26-5.13-1.67l-3.96-.97c-1.21-.29-2.35-.66-3.43-1.1s-1.93-1.01-2.58-1.73c-.64-.71-.97-1.61-.97-2.68,0-.98.28-1.85.83-2.61s1.37-1.36,2.45-1.79c1.07-.43,2.36-.64,3.87-.64,2.23,0,4.01.48,5.35,1.44,1.34.96,2.08,2.31,2.24,4.07h8.64c-.04-2.56-.73-4.82-2.08-6.78s-3.22-3.5-5.62-4.6c-2.4-1.1-5.21-1.66-8.44-1.66s-5.98.55-8.45,1.64c-2.47,1.09-4.41,2.63-5.83,4.6-1.42,1.97-2.12,4.28-2.12,6.91,0,3.16,1.04,5.71,3.13,7.63,2.09,1.92,4.98,3.34,8.67,4.23l4.8,1.2c1.6.37,2.96.8,4.07,1.29,1.11.49,1.97,1.07,2.56,1.74s.89,1.51.89,2.5c0,1.11-.33,2.09-1,2.93-.66.84-1.59,1.49-2.77,1.95Z"/>
    <polygon points="379.78 .59 371.31 .59 372.22 18.75 378.9 18.75 379.78 .59"/>
    <polygon points="0 87 13.36 87 13.36 123.24 22.32 123.24 22.32 87 35.65 87 35.65 79.59 0 79.59 0 87"/>
    <rect x="44.12" y="79.59" width="8.94" height="43.65"/>
    <path d="M91.77,99.62c-.29.94-.63,2.16-1.01,3.66-.38,1.5-.77,3.12-1.16,4.83-.38,1.66-.73,3.27-1.06,4.84-.34-1.59-.69-3.22-1.07-4.9-.39-1.72-.78-3.32-1.16-4.8-.38-1.48-.72-2.7-1.01-3.63l-7.09-20.04h-13.71v43.65h8.88v-20.57c0-1-.01-2.21-.04-3.65s-.07-2.99-.12-4.66c-.05-1.67-.09-3.33-.13-5-.02-.63-.03-1.22-.04-1.81.2.77.38,1.52.6,2.3.47,1.73.93,3.4,1.39,5.02.46,1.62.89,3.1,1.3,4.44.41,1.34.76,2.46,1.05,3.35l7.35,20.57h7.53l7.24-20.57c.29-.9.64-2.03,1.05-3.38.41-1.36.84-2.85,1.3-4.47.46-1.62.91-3.3,1.36-5.02.22-.85.43-1.68.63-2.5-.01.72-.03,1.45-.05,2.21-.04,1.67-.08,3.33-.13,4.98-.05,1.65-.09,3.19-.12,4.61-.03,1.43-.04,2.62-.04,3.57v20.57h8.99v-43.65h-13.77l-6.97,20.04Z"/>
    <polygon points="132.92 104.84 151.67 104.84 151.67 97.54 132.92 97.54 132.92 87 153.2 87 153.2 79.59 123.99 79.59 123.99 123.24 153.26 123.24 153.26 115.83 132.92 115.83 132.92 104.84"/>
    <polygon points="172.6 79.59 163.66 79.59 163.66 123.24 191.44 123.24 191.44 115.83 172.6 115.83 172.6 79.59"/>
    <rect x="199.9" y="79.59" width="8.94" height="43.65"/>
    <path d="M248.96,100.53c0,1.17.04,2.6.12,4.28.08,1.68.17,3.44.28,5.27.05.78.1,1.53.15,2.27-.37-.9-.74-1.76-1.11-2.56-.75-1.62-1.49-3.09-2.21-4.42-.72-1.33-1.44-2.56-2.14-3.69l-13.8-22.09h-9.96v43.65h9.14v-20.07c0-1-.03-2.28-.1-3.85-.07-1.57-.16-3.33-.28-5.26-.07-1.12-.14-2.27-.2-3.44.64,1.29,1.22,2.47,1.74,3.52.85,1.71,1.67,3.27,2.45,4.69.78,1.42,1.63,2.88,2.55,4.38l12.54,20.04h9.99v-43.65h-9.14v20.95Z"/>
    <polygon points="278.52 104.84 297.27 104.84 297.27 97.54 278.52 97.54 278.52 87 298.79 87 298.79 79.59 269.58 79.59 269.58 123.24 298.85 123.24 298.85 115.83 278.52 115.83 278.52 104.84"/>
    <path d="M339.83,79.59l-14.91,43.65h9.87l3.24-10.14h15.51l3.37,10.14h9.93l-15.29-43.65h-11.72ZM340.27,106.1l1.26-3.93c.8-2.66,1.61-5.61,2.42-8.86.52-2.11,1.08-4.35,1.66-6.71.6,2.34,1.18,4.56,1.74,6.65.87,3.23,1.72,6.21,2.56,8.92l1.3,3.93h-10.94Z"/>
    <path d="M400.35,106c2.35-1.1,4.15-2.7,5.39-4.78s1.86-4.56,1.86-7.43-.61-5.37-1.83-7.5c-1.22-2.13-2.99-3.78-5.32-4.95s-5.15-1.76-8.47-1.76h-17.02v43.65h8.94v-15.59h7.01l8.34,15.59h9.9l-9.3-17.05c.16-.07.34-.12.5-.19ZM383.9,86.97h6.42c1.84,0,3.34.26,4.53.79s2.07,1.29,2.65,2.3c.59,1.01.88,2.25.88,3.74s-.29,2.66-.88,3.65c-.59.99-1.46,1.73-2.64,2.23s-2.68.75-4.51.75h-6.45v-13.45Z"/>
    <path d="M444.48,111.49c-.56.94-1.26,1.73-2.11,2.39-.85.66-1.81,1.15-2.87,1.49-1.06.34-2.22.51-3.47.51-2.25,0-4.22-.55-5.92-1.64-1.7-1.09-3.03-2.71-3.98-4.86-.96-2.15-1.44-4.79-1.44-7.94s.47-5.71,1.42-7.87c.95-2.16,2.28-3.8,3.98-4.94,1.71-1.13,3.7-1.7,5.96-1.7,1.25,0,2.41.17,3.49.51,1.07.34,2.03.84,2.86,1.49.83.66,1.52,1.45,2.08,2.37.56.93.93,2,1.13,3.21h9.05c-.33-2.46-1.03-4.65-2.08-6.58-1.05-1.92-2.41-3.55-4.07-4.88-1.66-1.33-3.56-2.34-5.7-3.03-2.14-.69-4.45-1.04-6.93-1.04-3.83,0-7.28.88-10.34,2.64s-5.49,4.31-7.27,7.66c-1.78,3.35-2.67,7.4-2.67,12.14s.88,8.76,2.65,12.1,4.18,5.89,7.24,7.65,6.52,2.64,10.39,2.64c2.75,0,5.23-.42,7.44-1.26,2.21-.84,4.11-1.99,5.71-3.46s2.89-3.12,3.85-4.98c.97-1.86,1.57-3.8,1.8-5.83h-9.05c-.21,1.19-.6,2.26-1.16,3.19Z"/>
    <polygon points="492.18 97.22 473.16 97.22 473.16 79.59 464.23 79.59 464.23 123.24 473.16 123.24 473.16 104.63 492.18 104.63 492.18 123.24 501.14 123.24 501.14 79.59 492.18 79.59 492.18 97.22"/>
    <rect x="512.61" y="79.59" width="8.94" height="43.65"/>
    <path d="M554.97,100.65c-.8,2.66-1.61,5.57-2.43,8.75-.54,2.07-1.1,4.3-1.69,6.66-.6-2.33-1.18-4.55-1.74-6.63-.86-3.19-1.71-6.12-2.55-8.77l-6.97-21.06h-9.93l15.29,43.65h11.69l14.94-43.65h-9.87l-6.74,21.06Z"/>
    <polygon points="588.64 115.83 588.64 104.84 607.39 104.84 607.39 97.54 588.64 97.54 588.64 87 608.92 87 608.92 79.59 579.71 79.59 579.71 123.24 608.98 123.24 608.98 115.83 588.64 115.83"/>
    <circle cx="433.98" cy="24.47" r="6.81"/>
    <circle cx="534.21" cy="24.47" r="6.81"/>
    <circle cx="570.35" cy="24.47" r="6.81"/>
    <rect x="402.88" y="23.47" width="206.87" height="2"/>
  </g>
</svg>